<?xml version="1.0" encoding="UTF-8"?>
<svg id="Layer_2" data-name="Layer 2" xmlns="http://www.w3.org/2000/svg" viewBox="0 0 331.86 411.04">
  <defs>
    <style>
      .cls-1 {
        fill: #ad9473;
      }

      .cls-2 {
        fill: #e1caa7;
      }

      .cls-3 {
        fill: #a36b2a;
      }

      .cls-4 {
        fill: #eeeeef;
      }

      .cls-5 {
        fill: #8f602a;
      }

      .cls-6 {
        fill: #c9b291;
      }

      .cls-7 {
        fill: #99662a;
      }

      .cls-8 {
        fill: #fdeccf;
      }

      .cls-9 {
        fill: #011227;
      }

      .cls-10 {
        fill: #021226;
      }

      .cls-11 {
        fill: #1c1a18;
      }

      .cls-12 {
        fill: #0c131d;
      }

      .cls-13 {
        fill: #00b7f5;
      }

      .cls-14 {
        fill: #173459;
      }

      .cls-15 {
        fill: #142e53;
      }

      .cls-16 {
        fill: #252019;
      }

      .cls-17 {
        fill: #a06c2f;
      }

      .cls-18 {
        fill: #1b385f;
      }

      .cls-19 {
        fill: #2b3b48;
      }

      .cls-20 {
        fill: #00b2f2;
      }

      .cls-21 {
        fill: #011126;
      }

      .cls-22 {
        fill: #a8916f;
      }

      .cls-23 {
        fill: #1e395e;
      }

      .cls-24 {
        fill: #b39a78;
      }

      .cls-25 {
        fill: #c8b291;
      }

      .cls-26 {
        fill: #795021;
      }

      .cls-27 {
        fill: #fceacb;
      }

      .cls-28 {
        fill: #ad9674;
      }

      .cls-29 {
        fill: #fdedd0;
      }

      .cls-30 {
        fill: #f2f2f3;
      }

      .cls-31 {
        fill: #1e385d;
      }

      .cls-32 {
        fill: #241d14;
      }

      .cls-33 {
        fill: #c9b598;
      }

      .cls-34 {
        fill: #1c385e;
      }

      .cls-35 {
        fill: #040f20;
      }

      .cls-36 {
        fill: #1d385d;
      }

      .cls-37 {
        fill: #875921;
      }

      .cls-38 {
        fill: #122c51;
      }

      .cls-39 {
        fill: #1f3a5f;
      }

      .cls-40 {
        fill: #0c1929;
      }

      .cls-41 {
        fill: #051021;
      }

      .cls-42 {
        fill: #0b1523;
      }

      .cls-43 {
        fill: #0082bf;
      }

      .cls-44 {
        fill: #010f23;
      }

      .cls-45 {
        fill: #19355c;
      }

      .cls-46 {
        fill: #02152b;
      }

      .cls-47 {
        fill: #0088c7;
      }

      .cls-48 {
        fill: #c6b090;
      }

      .cls-49 {
        fill: #e3d1b0;
      }

      .cls-50 {
        fill: #060f1e;
      }
    </style>
  </defs>
  <g id="Layer_1-2" data-name="Layer 1">
    <g>
      <path class="cls-35" d="M163.96,362.69c-1.33-2.71.81-5.69,3.84-5.05l2.17.32,7.55,26.56c9.09-.14,18.31.07,27.68.62l2.43,1.56c2.28,5.11,3.52,10.68,3.72,16.7,8.16.69,12.04-1.68,11.65-7.1-.47-15.77.67-31.42,3.42-46.94,6.39-19.89,11.34-43.76,7.12-62.9-10.17,17.68-27.2,28.82-45.98,35.94-1.87,2-3.74,2.96-4.35-.29-2.1,2.69-3.47,6.07-4.11,10.11l-.97.53c-1.71,3.07-4.86,4.13-4.04-1.03-1.8-.34-2.38-1.7-1.76-4.06-5.62.92-16.08,2.44-20.48-1.79-.83-.8-1.59-1.68-1.43-2.91-1.19,2.13-5.2-1.9-6.22-3.29-8.29-11.27-9.25-26.81,4.23-34.29,1.22-4.85,6.06-7.19,10.5-8.4-13.17-20.25-42.13-31.28-64.19-38.22l-1.39-1.69c-3.43,1.1-4.25-.63-4.39-4.06-.06-1.5,1-9.65,3.37-7.92,2.65-.95,4.09.9,4.33,5.58,20.68,7.31,43.65,9.85,66.16,8.07l5.02,1.56,5.96-1.41c42.28-3.52,98.66-12.84,94.32-66.72l-.25-25.17c-5.23-2.52-14.08-7.65-5.31-11.92,8.47,6.66,31.81,11.07,40.58,4.6,6.94-5.13,17.93-17.93,22.22-25.45.76-1.34-.66-2.41-1.57-3.07-4.59-3.36-23.76-12.87-28.99-14.45-13.03-3.92-23.8,1.46-34.91,7.58-8.17-.73-3.13-7.49,1.78-10.05-1.79-.3-3.25-1.03-4.4-2.17l-14.04-26.79c-3.99-7.68-8.84-13.15-16.77-16.77-21.63-9.86-28.12-5.13-38.75,13.7-3.61,4.64-9.54,11.03-15.2,5.76-3.9,2.32-7.82,4.73-11.76,7.23-8.73,5.86-15.56,6.44-25.38,3.92-10.57-2.72-13.42-5.13-7.1-14.98-9.42-2.46-17.54-7.77-18.89-18.13-35.46,9.5-43.27,42.37-47.87,74.45-1.41,22.4-3.34,44.65-5.78,66.75l.85,2.73c1.16,2.73-3.33,6.54-5.89,6.81l-.83-17.84c1.71-10.1,2.92-20.46,2.97-31.48-31.15,5.53-35.63-7.25-49.61-26.16-2.73-3.69-5.33-10.96-.5-13.59l25.27-13.71c9.89-5.37,21.04-4.89,31.35-.57,1.07-.39,1.52-2.61,1.31-3.57.01.05-14.02-13.46-21.37-22.53-2.4-2.96-3.65-6.93-3.49-11.01.59-15.23,1.98-30.44,6.55-44.75,1.3-4.08,6.15-6.29,9.27-6.05,11.53.88,7.98,20.55,15.64,33.02l19.67,11.21c7.58-6.08,15.27-8.8,23.93-11.81.06-7.94,1.56-17.27,6.12-18.16,1.18-.23,2.44.34,3.57,1.23l6.2,4.89c1.62-7.69,6.64-12.84,12.78-17.23,12.56-8.98,28.1-11.55,42.07-4.68,2.61,1.28,3.12,3.92,1.79,6.43l-4.5,8.52c10.14,1.75,19.77,4.64,30.32,5.36,2.06.14,3.81.59,4.6,2.04,1.59,2.93-1.71,6.26-2.46,11.05,10.91,2.24,20.44,5.7,29.76,12.04,5.94-4.22,14.35-5.72,18.89-11.2,9.19-13.11,5.14-33.94,17.77-34.28,3.42-.09,7.85,2.52,9.12,6.85,4.63,15.92,9.76,50.11-.26,59.94l-19.2,18.83c-.96.94.47,3.86,1.4,3.5,12.01-5.05,25.09-5.46,36.59,1.09l24.75,14.1c2.74,1.56,1.81,7.73.11,10.09-15.95,22.06-26.91,35.67-56.15,28.99.57,14,.64,27.8-.81,41.85-2.46,23.79-20.09,37.48-42.06,45.18,7.17,11.72,10.11,24.9,8.24,38.61,1.7,17.54,2.85,34.9-.07,52.23-.65,3.88-1.38,5.07,1.27,8.53,3.95,5.15,12.62,9.1,18.26,3.59-2.12-5.8-3.64-13.2.56-20.02,8.29-13.49,20.67-9.32,27.63-16.2,1.66-1.64,3.28-2.49,5.29-1.81,5.01,1.68,2.79,11.8.67,20.29,1.51.14,3.86,1.48,3.67,2.68-2.04,13.16-13.49,27.27-27.7,22.39-9.42,12.23-23.51,13.78-36.32,4.08-2.79,16.66-3.7,33.25-3.26,50.13.16,6.02-4.03,9.34-9.31,10.22-14.29,2.36-28.5,2.54-42.86.99-4.58-.49-7.86-3.92-7.46-8.03l1.25-13.04-7.1-26.27Z"/>
      <path class="cls-32" d="M56.56,189.9c.16-5.99,10.18-2.36,13.6.12,4.05-1.36,8.13-2.3,12.25-2.81-.12,1.76,1.22,2.73,4.03,2.91,4.03-4.78,7.18.9,8.62,5.54.12,8.51-1.32,16.93-4.33,25.24,1.45,1.43,1.99,2.83,1.61,4.19-1.51.69.83,4.72-2.05,9.7,1.66.53,2.53,1.31,3.06,2.28,2.29,1.63,1.39,2.76-1.25,2,.45,2.2-.47,3.45-2.32,4.47-1.94.72-7.75,4.31-7.4,4.97.14.27.17.59.15.92-.04.5-.17,1-.34,1.49,4.79-.61,14.14,12.24,6.92,13.68-2.16.43-13.68-11.14-14.92-13.31-4.64,2.64-9.72,4.37-15.24,5.18l-3.75,14.65c-8.72,7.95-7.29-7.08-5.51-12.64-2.75-.64-5.78-.81-9.11-.51l-1.38-1.99-7.11-5.01.14-2.73c-.12-2.01.56-3.84,1.24-6.06l-18.91-12.2c-3.95-2.55-5.04-6.03-3.56-10.17,2.79-7.82,11.48-9.95,17.59-12.04,3.77-8.23,10.19-15.13,21.34-11.75-1.02-6.97-1-11.85-.1-17.15l.94,16.68c2.41-2.41,3.69-4.35,5.78-5.65Z"/>
      <path class="cls-11" d="M14.24,301.11l1.18,3.19c-8.72,27.99.55,58.94,27.34,72.92l1.57,3.02c1.29-.46,2.48-.23,3.73.11,31.84,8.86,56.59,9.55,87.14-5.25,17.65-8.55,31.77-21.66,36.37-41.18l2.5-2.2c.33.53-.17,1.22.52,2.39.75-1.53,2.27-2.15,3.52-1.36.81-.27,1,.21.55,1.46l1.2,3.04-4.19,11.18c-1.59,5.05-4.22,8.11-7.89,9.2-1.16,1.48-2.59,3.86-3.84,5.05-4.72,4.5-10.14,9.31-16,12.88-2.24,1.36-4.22,2.26-5.36,4.23-1.84,2.37-3.58,2.98-5.22,1.85l-1.25,2.62c-5.61,2.15-11.22,4.29-16.83,6.44l-2.06-1.35c-.46,3.17-2.65,2.86-4.93.96-.49.64-1.01,1.24-1.61,1.74-3.49,2.89-20.84,4.51-25.24,1.5-.61,2.91-2.84,2.7-4.07,0-12.63-.64-24.82-2.79-36.78-7.91-35.36-15.16-46.2-52.5-33.74-87.99,1.09.92,1.53.71,1.31-.64,1.98-.25,2.67,1.11,2.07,4.08Z"/>
      <path class="cls-50" d="M32.24,248.24c3.28,4.08,8.52,3.67,6.97,7.74,7.12,8.07.33,23.24-5.95,30.97-3.9,4.79-7.85,8.66-14.57,8.08-.67,3.75-2.15,5.78-4.44,6.09-.69-1.05-.52-2.26-1.45-3.09-.39,2.88-2.57,1.52-1.93-.36l2.18-6.2c-11.58-9.27-6.45-30,5.36-39.28,4.05-3.18,9.1-5.43,13.84-3.94Z"/>
      <path class="cls-41" d="M142.6,379.8l-2.91,22.76c-.27,2.08-2.43,4.78-4.87,5.03-16.61,1.69-33.55,3.14-50.14-.34-4.67-1.19-4.52-10.31-3.29-13.69,1.18.06,2.87.02,4.07,0l1.97,1.13c-.08,1.2-.22,6.47.58,6.99,1.32.86,22.21,2.14,24.77.91.77-.37.98-9.39-1.19-10.27l.72-2.02c1.41-.34,3.41-.89,4.93-.96l2.53,1.19c.87,3.95,1.59,7.78,2.16,11.47,4.25-.26,8.29-.86,12.12-1.81l1.19-16.61,2.14-1.95c1.47-.56,2.75-3.72,5.22-1.85Z"/>
      <path class="cls-39" d="M167.84,240.29l.72-2.65c16.23-7.48,20.25-28.71,13.13-44.01-12.06-25.92-71.65-27.78-91.17-11.83-2.59,2.12-5.84,4.9-4.08,8.3l-5.04-1.08-12.01,3.27c-3.56-3.34-9.05-4.74-12.83-2.4-5.77.85-1.37-12.05-.7-21.01l3.4-45.68c2.69-36.11,14.97-70.48,51.74-80.24,1.1,13.14,8.6,16.82,20.52,19.9-2.64,3.94-5.22,6.92-4.31,11.34,6.55,3.15,13.79,4.07,21.06,4.63,9.2-3.59,16.87-8.18,24.44-14.2,4.47,9.4,13.68-2.73,19.71-13.26,3.09-5.39,8.92-10.74,15.86-9.74,9.64,1.39,21.15,4.18,28.31,11.05,3.99,3.82,7.25,9.33,9.79,14.21l12.68,24.4c1.47.74,4.54.61,5.77,3.28-4.04,2.91-8.16,4.74-7.15,7.56,1.32,3.67,19.91-17.39,44.25-4.67l22.87,11.95c2.52,1.32,3.3,3.77,2.02,6.49-6.57,9.44-13.94,17.69-22.64,25.41-13.82,5.74-29.8,4.16-41.84-4.53-1.74.6-1.9,3.57-.35,4.47l7.8,4.54c-.16,28.59,4.97,57.83-20.4,74.62-21.19,14.02-51.37,18.7-77.18,20.58-1.73.13-3.03-.2-4.38-.72Z"/>
      <path class="cls-6" d="M150.42,322.96c1.85,2.55,3.61,5.06,5.27,7.53-11.77,45.2-70.59,59.22-111.35,49.75-17.39-8.23-29.5-23.61-33.12-43.28-2.25-12.21-.33-24.31,3.02-35.85l3.14-8.28c7.61,1.35,11.58-3.39,15.32-8.47,2.74-3.72,4.36-6.14,5.61-10.9,1.11-4.25,3.77-8.6.88-13.59-.66-1.14-.39-2.81.02-3.88l13.16-.07c-1.91,7.59-3.33,15.89-.58,15.93.5,0,1.49-.96,1.68-1.72l3.82-15.22c5.84-1.25,11.39-2.77,17.06-5.37l14.53,13.55c1.47-1.41,1.09-3.35,0-4.59l-6.67-7.56c-.23-1.64.64-2.43,2.6-2.37,1.09-5.14,5.17-6.32,12.26-3.53-2.74-1.81-4.39-3.79-4.96-5.95l1.25-2c26.68,6.09,52.98,18.47,69.29,41.58-6.23.45-11.04,2.64-12.77,7.99-9.48,5.12-12.44,16.02-7.53,25.25,1.45,2.72,1.56,5.63,4.69,7.49l3.38,3.58Z"/>
      <path class="cls-29" d="M167.84,240.29c-17.75,1.82-36.7,1-55.05-2.68l-18.36-5.55c.02-3.15-.19-5.72-2.1-6.99l-4.12-2.73c4.12-13.91,9.7-33.05-1.77-32.24l-3.85-1.16c3.15-6.97,9.05-11.5,16.7-14.09,21.43-7.25,45.38-6.7,66.51,1.45,17.54,6.76,24.15,25.23,19.87,43.18-2.05,10-8.95,16.23-17.82,20.8Z"/>
      <path class="cls-31" d="M167.81,357.64c5.42-6.92,8.6-15.23,10.87-23.42.8-3.96,1.86-7.8,3.18-11.52l1.35-.58c1.59,1.21,2.23-.97,3.47-1.47,12.84-5.18,24.45-11.2,34.23-20.91,5.89-5.85,9.67-12.68,14.81-20.11l1.2,19.32c1.05,16.87-3.06,31.95-7.71,47.75-6.9,23.44-1.69,53.79-5.99,56.28-4.08,2.37-8.99,2.12-13.59,2.59l-1.56-11.7c-.45-3.36-1-7.03-4.99-7.09l-19.83-.3c-2.61-.04-4.76.09-6.84,1.4l-8.6-30.25Z"/>
      <path class="cls-36" d="M181.19,270.17c-2.01-1.67-3.03-4.23-3.06-7.69-1.77-4.04-2.07-7.54-.9-10.52-2.88.87-4.47-4.56-1.92-5.96,17.5-1.74,34.22-4.74,51.75-10.25,5.82,9.95,10.67,21.77,7.63,33.17-8.19,30.7-39.34,46.76-69.32,53.11-6.77,1.43-17.32-4.68-18.22-10.99,3.13-1.86,7.66-2.67,9.33-6.12.46-1.19-2.62-1.95-3.82-1.5l-7.83,2.91c-1.73-6.52,1.34-14.3,7.83-16.15,1.31.94,2.99,1.94,4.2.9.85-.73,2.37-2.09.52-3.25-8.72-5.48,16.01-4.02,28.4-14.76l9.78-16.61c.75-1.27.52-2.2-.39-2.89-.43-.32-1.75-.6-2.33.22l-11.67,16.38Z"/>
      <path class="cls-23" d="M172.81,58.47c-6.49,6.73-22.83,17.6-27.94,16.1-4.4-1.29-9.36-.98-13.63-3.45l4.94-7.91c4.45-7.13-14.28-1.65-19.41-14.43-3.21-8-2.02-17.03,1.17-25.23,4.59,4.15,6.52,8.38,12.96,9.33-1.15-6.81,1.05-10.83,4.9-15.01,11.11-12.06,27.89-17.21,43.47-10.29l-6.54,15.25c6.33.84,12.47,2.38,18.68,3.25l18.22,2.55-3.53,8.58c-18.24,3.75-16.77,18.01-28.58,26.97l-4.71-5.71Z"/>
      <path class="cls-24" d="M174.09,331.73c-2.97,16.08-12.84,29.84-27.17,39.07-29.65,19.09-71.11,24.34-102.58,9.44,1.61-1.63,3.29-1.41,5.64-.97,33.71,6.31,74.87-3.15,96.01-31.56,3.82-5.14,7.45-11.9,7.82-17.93-1.97-1.78-4.81-3.98-3.39-6.83,4.23,4.48,15.6,4.73,24.08,1.83l-.41,6.94Z"/>
      <path class="cls-29" d="M262.1,87.85c-5.75-12.26-10.99-23.96-20.14-34.07,6.57-4.75,16.23-5.92,21.34-12.35,8.62-10.86,6.7-32.23,14.45-33.04,1.8-.19,4.13,1.25,4.77,3.63,3.9,14.46,5.66,29.36,4.98,44.4-.15,3.21-.94,6.11-2.37,8.81-6.99,7.82-13.66,15.27-23.02,22.62Z"/>
      <path class="cls-8" d="M62.27,84.56c-6.54-4.81-10.96-11.01-16.56-16.79-2.09-2.15-4.85-5.48-4.97-8.75-.54-15.53,1.52-30.73,5.52-45.58.55-2.05,3.09-3.75,4.57-3.72,7.28.18,5.08,20.71,12.82,31.25,4.26,5.79,12.7,7.21,19.06,11.6-9.05,8.54-15.82,18.77-20.43,31.99Z"/>
      <path class="cls-45" d="M26.53,133.32c2.49-2.66,4.86,1.12,1.31,2.45,7.21,4.8,17.1,4.11,25.25-.83.89,3.02.61,4.98-.46,7.89-26.95,7-32.89-5.48-47.32-25.53-.98-1.36-1.38-5.17.02-6.06,9.48-6.06,19.03-11.22,29.47-15.43,7.92-3.19,16.38-1.45,24.17,2.26l-3.55,21.35c-7.47-1.34-13.76-11.29-19.99-10.76-8.17.69-15.45,3.71-23.13,6.54,2.98,7.45,6.54,13.69,12.46,18.69.69.58,1.59.49,1.78-.57Z"/>
      <path class="cls-18" d="M254.81,350.03c-7.48,1.86-14.46-.35-20.44-4.5l3.16-9.85c3.62,4.2,7.43,7.77,12.4,8.1,5.51.36,10.92-2.33,14.45-6.54-4.54-5.75-3.88-12.06-.84-18.11,5.33-10.58,16.53-6.84,27.27-15.47,2.31,10.78-7.74,23.11-2.33,21.35l2.81-.91c-.27,4.36-2.79,7.44-5.11,10.95-4.18,6.34-12.13,8.46-18.85,3.89-2.62,5.36-6.49,9.6-12.52,11.1Z"/>
      <path class="cls-27" d="M181.19,270.17c-2.93,4.11-8.85,5.24-13.98,7.22-5.74-8.67-12.77-15.41-20.41-21.58l.25-2.31c9.31-1.08,18.68-1.9,28.1-2.47l2.08.93c1.89,5.87,3.7,11.93,3.97,18.2Z"/>
      <path class="cls-34" d="M203.41,390.78l2.09,14.95c-9.74.94-19.35.58-29.57-.52-2.42-4.6-2.08-9.84-.03-15.13l27.51.69Z"/>
      <path class="cls-13" d="M52.45,132.3c-8.82,7.45-14.51,4.49-24.61,3.47.84-1.69-.91-1.95-1.31-2.45-3.81-4.77-8.19-9.46-10.85-15.4,15.98-2.04,25.97-1.04,37.07,11.97l-.3,2.42Z"/>
      <path class="cls-2" d="M136.07,245.27c12.27.63,24.98.71,37.23-.14.54.21,1.4.82,2,.87l1.92,5.96c-.99.97-2.26,1.37-3.92,1.46l-22.07,1.23c-1.71.1-3.19.47-4.43,1.15-5.08-4.1-10.9-6.95-16.8-10.24,2.45-.68,4.29-.3,6.07-.3Z"/>
      <path class="cls-47" d="M52.45,132.3l-9.55-8.6c-8.81-7.84-19.18-2.29-27.22-5.78l15.69-4.72c3.41-1.03,6.28-.36,9.25,1.72l12.87,9.04c3.06,2.15.75,6.82-1.04,8.34Z"/>
      <path class="cls-49" d="M183.22,322.12c-.15,4.24-1.87,8.74-4.54,12.1-.64-.33-.59-1.12-.55-1.46l1-8.94c.46-1.02,3.22-2.36,4.08-1.7Z"/>
      <path class="cls-36" d="M173.3,245.13c-.25.58-.99.96-2.02.96h-33.08c-.98,0-1.72-.43-2.13-.82l37.23-.14Z"/>
      <path class="cls-48" d="M88.26,202.42l-1.66.35c-.89,4.97-2.93,13-5.63,17.09-4.3,6.49-7.05,1.44-6.8-4.17-2.85-6.69-8.37-8.48-6.04,1.26.13,8.45-.24,20.4-11.93,18.96-.3-.04,5.88-.83,5.21.81l-6.99,2.23-8.48-9.54c-.7-.78-2.32-.77-2.89-.33-.47.36-.71,1.56-.05,2.35l6.41,7.72c-3.17.78-7.45,1.8-10.53.24-8.35-4.22-16.86-8.96-23.63-15.33-1.48-3.25,2.74-6.88,4.85-8.02,2.25-.24,2.63,1.46,1.13,5.09,5.17-1.52,10.19-3.75,15.08-6.7,12.91,3.82,22.62-.33,29.33-11.91,4.2.36,7.95-.28,11.24-1.91l-1.33-1.27c-3.16.52-6.15.51-8.97-.04-.86-2.04.48-2.79,4.02-2.25,5.29-3.47,12.23-5.78,17.98-1.08.89,1.48-.1,4.85-.32,6.43Z"/>
      <path class="cls-22" d="M70.6,197.07c-.69.74-2.26.24-2.66,2.4,3.21-.64,5.25-.59,7.61-.12l.18,1.39c-2.85,1.35-6.24,1.99-10.17,1.93-8.77,12.12-16.74,14.82-31.44,11.63l-1.83-1.94,1.91-6.41c1.55-5.25,7.75-7.19,13.05-5.99,3.83.86,5.52-.66,7.42-3.31,3.13-4.35,8.6-4.89,12.24-1.13.79.82,2.76,1.79,3.67,1.55Z"/>
      <path class="cls-1" d="M88.26,202.42c-1.08,7.76-3.34,15.67-6.14,23.36l-8.78,5.43-.85-12.25c-.06-.86-.24-1.66-.68-2.04-.36-.31-1.91.14-1.92.91l-.31,15.33c-2.46,1.55-5.61,3.69-8.16,3.56-4.42-.22-6.76,2.43-9.84-3.69,2.13.34,4.19,2.21,6.86,1.8,9.05-1.38,8.32-15.01,6.93-26.3,3.83-1.39,6.54.77,8.58,2.5,4.15,3.53,1.18,12.12,3.71,9.82.45-.41,1.1-.85,1.52-1.86l5.28-12.78c1.93-4.66-.86-8.88-5.07-10.59,3.25-.16,6.62-.46,7.67,1.63.33,1.46-.66,4.36,1.21,5.16Z"/>
      <path class="cls-16" d="M21.23,221.14c-.8-2.84.7-4.89,4.5-6.14l-.63-1.86c1.72-2.23,4.92-.65,7.19-.77,4.03-.21,7.28.12,11.48,1.01,6.5,1.38,13.09-2.83,16.63-8.03,5.3-7.79,10.81-3.61,15.15-5.99,1.31-.72,3.15-1.38,4.73-.1-2.85,4.95-8.18,5.93-13.89,4.62-5.17,11.63-16.92,16.6-28.53,12.59-3.77-1.3-11.2,9.19-16.64,4.68Z"/>
      <path class="cls-28" d="M82.19,250.92c-.94-1.06-3.04-1.5-3.08-3.78,5.07-2.16,9.49-4.81,12.98-8.08,3.94,1.28,9.49,6.76,7.57,8.63l-12.07-2.61c-.1,1.75-.41,3.69-1.54,4.94-.74.82-2.18.5-3.87.89Z"/>
      <path class="cls-26" d="M81.63,240.08c-.72-2.85-1.97-4.35-4.2-5.65,3.89-1.72,6.38-5.34,10.13-7.39,2.38-.59,3.28,3.33,2.76,5.38-.9,3.54-4.1,5.98-8.7,7.66Z"/>
      <path class="cls-7" d="M62.32,248.71c-2.35.84-4.66,1.91-7.09,1.41s-2.58-4.55-1.08-6.05l6.55-2.49c.12,2.53.54,4.14,1.62,7.13Z"/>
      <path class="cls-17" d="M71.1,244.9c-1.77,1.82-3.88,2.68-6.65,2.86l.2-7.23,5.06-1.88,1.4,6.25Z"/>
      <path class="cls-5" d="M43.12,245.09c-.46,2.26-.64,3.87.22,6.38-2.03.54-5.01.28-6.53-1.84-1.02-1.41-.37-3.83.9-4.6,1.12-.68,2.89-.93,5.41.06Z"/>
      <path class="cls-37" d="M73.8,244.22l-1.07-6.98c.23-1.32,3.49-1.78,4.34-.75.74.89,1.66,2.47,1.92,4.25.19,1.29-1.25,3.01-5.2,3.48Z"/>
      <path class="cls-3" d="M51.02,244.67l.71,6.12c-.58,1.08-4.05,1.06-5.37-.03s-1.39-3.28-.17-5.29c.79-1.3,4.63-2.52,4.83-.8Z"/>
      <path class="cls-22" d="M25.11,213.13l6.42.22c-5.59,4.85-10.66,5.33-10.3,7.79-1.56-1.29-.41-3.49-1.13-5.09,1.44-.78,2.9-2.99,5-2.92Z"/>
      <path class="cls-15" d="M112.32,390.31c3.71,2.91,3.4,8.19,2.22,14.14-9.31.5-18.48,1.02-27.87-1.02-1.77-2.97-1.24-6.49-1.21-9.87,9.05-.15,18.03-1.1,26.86-3.25Z"/>
      <path class="cls-38" d="M137.38,381.65l-1.49,20.79-16.84,1.92c.62-5.63.02-10.19-1.8-15l20.14-7.71Z"/>
      <path class="cls-14" d="M32.51,272.72c1.63,1.41-.29,6.01-2.08,6.14-4.91.36-11.07-6.76-11.24-2.24-.11,3,3.76,4.94,8.53,6.5-1.3,3.6-4.43,5.54-7.92,5.66-2.94.1-6.6-1.96-7.74-5.46-3.29-10.05.78-20.15,8.38-27.16,3.67-3.38,9.72-5.48,13.57-1.77-.68,6.45,4.67,13.8.44,13.48-3.1-.24-5.25-2.88-7.42-4.48-.52-.38-2.28.9-2.03,1.66,1.17,3.52,4.4,4.97,7.5,7.65Z"/>
      <path class="cls-9" d="M197.73,168.09c-1.69,5.27-5.97,8.53-9.73,9.58-5.13,1.43-10.61.73-14.07-3.35-5.65-6.67-6.24-17-2.25-24.61,2.37-4.53,6.88-7.02,11.02-7.1,4.83-.09,9.21,1.8,12.33,5.84,4.1,5.31,4.92,12.72,2.7,19.63Z"/>
      <path class="cls-21" d="M99.96,166.12c-1.61,6.24-5.99,9.56-11.28,10.11-5.65.58-10.77-2.8-12.99-8.59-4.04-10.54.8-24.88,11.11-25.75,3.82-.32,7.22,1.79,9.99,4.92,4.42,4.99,4.94,12.47,3.17,19.31Z"/>
      <path class="cls-44" d="M273.55,134.35c-3.81-2.32-7.84-5.62-9.6-8.91-.56-1.04-4.87-1.72-3.43-3.97,7.63-1.98,14.65-5.07,21.02-9.79,4.67-3.46,10.37-4.5,15.81-2.69l20.59,6.84-8.09,12.02c-8.06,11.97-23.88,14.05-36.3,6.5Z"/>
      <path class="cls-10" d="M202.06,120.45c-11.88-13.6-23.74-4.02-25.34-8.19-2.7-7.04,24.05-6.82,27.62,6.29.16.59-1.87,2.36-2.28,1.89Z"/>
      <path class="cls-46" d="M97.91,111.63c-.7,4.68-11.68-4.64-20.89,6.42-.71.85-2.06-.16-2.35-.71-.36-.68-.77-1.75.06-2.82,8.52-10.87,23.92-7.83,23.19-2.89Z"/>
      <path class="cls-19" d="M97.24,358.84c.31,1.99-5.39,3.45-6.66,2.16-1.84-1.86-1.9-4.4-2.88-6.73-14.46,2.84-27.4-7.33-22.97-13.1,1.15-1.49,5.21-3.29,7.13-1.63,3.93,3.41,7.59,6.43,13.35,5.31l-5.65-19.28c-7.96.61-16.12-.7-20.44-7.42-6.07-9.44-1.26-22.02,8.74-26.48,4.54-2.03-1.09-6.69,2.27-8.9.95-.63,2.39-1.53,4.17-1.17,1.39.28,2.49,2.77,2.71,4.55.58,4.68,11.81-.91,19.15,7.86,2.19,2.61,2.45,6.03.16,7.54-7.33,4.86-7.61-5.17-16.5-3.76l4.66,17.21,9.03.64c7.58.54,13.51,5.62,15.64,12.15,2.39,7.36-.04,15.01-6.12,19.93l-6.86,4.3,1.08,6.82Z"/>
      <path class="cls-12" d="M152.77,211.9c1.6,6.02-25.67,19.9-43.7,2.67-1.5-1.44-1.04-3.22.05-4,1.55-1.11,2.09.02,3.5,1.29,9.78,8.88,25.81,9.28,35.33.21,1.03-.98,1.48-1.99,2.72-1.99.72,0,1.87.92,2.11,1.82Z"/>
      <path class="cls-42" d="M162.17,191.94c-.36,5-7.28,9.73-11.32,6.76-2.79-2.05-.6-6.24.63-7.97,1.78-2.5,5.11-4.54,8.59-3.46,1.47.45,2.28,2.17,2.1,4.67Z"/>
      <path class="cls-40" d="M108.76,196.1c-1,4.54-5.52,3.56-8.28,1.69-3.05-2.07-6.06-8.03-2.03-10.61,4.39-2.81,11.43,3.84,10.31,8.92Z"/>
      <path class="cls-30" d="M181.65,160.29c-4.01.47-6.31-2.69-6.41-5.6-.11-3.15,2.04-6.43,5.86-6.26,3.19.14,5.24,2.79,5.42,5.27.2,2.74-1.18,6.16-4.87,6.59Z"/>
      <path class="cls-4" d="M85.09,158.81c-3.48-.78-4.53-4.35-3.89-7.02.54-2.23,2.75-4.98,5.9-4.43s4.45,3.54,4.15,6.19-2.48,6.08-6.16,5.26Z"/>
      <path class="cls-20" d="M311.32,121.46l-4.2,5.54c-4.73,6.23-10.28,9.41-17.97,9.72s-14.16-1.63-18.38-7.87c.56-1.73,2.16-2.91,4.8-3.53,10.27-8.47,21.18-10.17,34.22-6.35l1.54,2.5Z"/>
      <path class="cls-43" d="M311.32,121.46c-6.7-1.97-14.34-3.1-21.6-1.76-6.32,1.17-12.25,8.97-18.95,9.14-.9-1.33-3.63-2-3.65-4.81,12.49-4.09,18.67-14.65,31.05-10.81l15.76,4.89c.02,1.96-2.05,2.61-2.61,3.34Z"/>
      <path class="cls-25" d="M92.49,342.94l-4.66-17.32c4.94-.68,9.99,1.72,11.15,6.15,1.23,4.7-1.5,9.58-6.49,11.17Z"/>
      <path class="cls-33" d="M77.04,315.47c-3.81.21-7.77-.61-9.49-3.79-2.4-4.42.35-9.62,5.04-12.07l4.45,15.86Z"/>
    </g>
  </g>
</svg>